<svg xmlns="http://www.w3.org/2000/svg" viewBox="0 0 768 1024" width="768" height="1024"><defs><path id="object" d="M383.0,335.5L375.0,335.5L371.0,333.5L369.5,331.0L369.5,329.0L367.0,327.5L364.0,327.5L363.0,326.5L360.0,326.5L359.0,325.5L355.0,325.5L354.0,324.5L351.0,324.5L350.0,323.5L347.0,323.5L346.0,322.5L342.0,322.5L341.0,321.5L338.0,321.5L337.0,320.5L322.0,318.5L321.0,317.5L314.0,316.5L313.0,315.5L310.0,315.5L309.0,314.5L305.0,314.5L304.0,313.5L301.0,313.5L300.0,312.5L296.0,312.5L295.0,311.5L292.0,311.5L291.0,310.5L285.0,310.5L284.0,309.5L281.0,309.5L280.0,308.5L276.0,308.5L275.0,307.5L272.0,307.5L271.0,306.5L264.0,305.5L263.0,304.5L259.0,304.5L258.0,303.5L254.0,303.5L253.0,302.5L248.0,302.5L245.0,304.5L235.0,304.5L230.5,301.0L230.5,299.0L229.0,297.5L222.0,296.5L220.0,295.5L218.5,293.0L218.5,275.0L220.0,273.5L223.0,272.5L231.0,265.5L234.0,264.5L238.0,260.5L246.0,255.5L249.0,252.5L253.0,250.5L254.0,248.5L260.0,245.5L264.0,241.5L265.0,241.5L270.5,236.0L270.5,230.0L276.5,227.0L276.5,222.0L275.5,221.0L275.5,197.0L274.5,196.0L273.5,137.0L272.5,136.0L272.5,95.0L271.5,94.0L271.5,67.0L270.5,66.0L270.5,51.0L269.5,50.0L269.5,46.0L277.0,40.5L279.0,40.5L286.0,36.5L289.0,36.5L298.0,31.5L300.0,31.5L307.0,27.5L312.0,26.5L321.0,21.5L323.0,21.5L330.0,17.5L333.0,17.5L347.0,10.5L348.0,11.5L356.0,11.5L357.0,12.5L364.0,12.5L365.0,13.5L382.0,14.5L383.0,15.5L390.0,15.5L391.0,16.5L411.0,17.5L412.0,18.5L421.0,18.5L422.0,19.5L438.0,20.5L439.0,21.5L446.0,21.5L447.0,22.5L455.0,22.5L456.0,23.5L472.0,24.5L473.0,25.5L481.0,25.5L482.0,26.5L487.0,26.5L493.5,30.0L493.5,35.0L492.5,36.0L492.5,59.0L491.5,60.0L491.5,89.0L490.5,90.0L490.5,118.0L489.5,119.0L489.5,148.0L488.5,149.0L488.5,177.0L487.5,178.0L487.5,193.0L492.0,193.5L493.0,194.5L498.0,194.5L499.0,195.5L504.0,195.5L505.0,197.5L506.0,196.5L509.0,196.5L511.5,198.0L510.5,219.0L506.0,223.5L505.0,223.5L502.0,227.5L501.0,227.5L497.0,231.5L496.0,231.5L495.5,233.0L483.0,244.5L482.0,244.5L478.0,248.5L477.0,248.5L473.0,253.5L472.0,253.5L464.0,261.5L463.0,261.5L454.0,270.5L453.0,270.5L445.0,278.5L444.0,278.5L436.0,286.5L435.0,286.5L421.5,300.0L421.5,301.0L420.0,301.5L404.5,317.0L404.5,318.0L393.0,329.5L392.0,329.5L389.5,332.0L389.0,333.5L387.0,334.5L384.0,334.5L383.0,335.5ZM347.5,43.0L347.0,20.5L345.5,22.0L345.5,43.0L347.5,43.0ZM425.5,58.0L429.0,56.5L431.0,54.5L435.0,53.5L442.0,48.5L455.0,42.5L457.0,40.5L460.0,39.5L464.0,36.5L466.0,36.5L467.5,35.0L461.0,34.5L460.0,33.5L453.0,33.5L452.0,32.5L436.0,31.5L435.0,30.5L428.0,30.5L427.0,29.5L411.0,28.5L410.0,27.5L403.0,27.5L402.0,26.5L390.0,26.5L389.0,25.5L382.0,25.5L381.0,24.5L373.0,24.5L372.0,23.5L365.0,23.5L364.0,22.5L357.0,22.5L356.0,21.5L351.5,22.0L351.5,43.0L353.0,44.5L360.0,44.5L362.0,45.5L362.0,50.5L365.0,50.5L366.0,51.5L373.0,51.5L374.0,52.5L381.0,52.5L382.0,53.5L388.0,53.5L389.0,54.5L400.0,54.5L401.0,55.5L408.0,55.5L409.0,56.5L423.0,57.5L424.0,58.5L425.5,58.0ZM342.5,47.0L342.0,23.5L338.0,24.5L336.0,26.5L333.0,26.5L313.0,36.5L310.0,36.5L308.0,38.5L306.0,38.5L299.5,42.0L301.0,43.5L315.0,44.5L316.0,45.5L327.0,45.5L328.0,46.5L334.0,46.5L335.0,47.5L342.5,47.0ZM487.5,124.0L488.5,64.0L489.5,63.0L489.0,39.5L488.5,55.0L487.5,56.0L487.5,86.0L486.5,87.0L486.5,124.0L487.5,124.0ZM480.5,191.0L481.5,132.0L482.5,131.0L482.5,100.0L483.5,99.0L483.5,68.0L484.5,67.0L484.0,42.5L479.0,45.5L477.0,45.5L472.0,49.5L460.0,55.5L458.0,57.5L450.0,61.5L448.0,63.5L444.0,64.5L439.0,68.5L434.0,70.5L431.5,73.0L431.5,111.0L430.5,112.0L430.5,183.0L432.0,184.5L437.0,184.5L438.0,185.5L449.0,186.5L450.0,187.5L455.0,187.5L456.0,188.5L460.0,188.5L461.0,189.5L472.0,190.5L473.0,191.5L480.5,191.0ZM282.5,229.0L289.0,225.5L298.0,218.5L300.0,218.5L310.0,210.5L318.0,206.5L321.0,203.5L327.0,200.5L330.0,197.5L334.0,195.5L339.0,191.5L342.0,190.5L344.5,188.0L344.5,135.0L343.5,134.0L343.0,62.5L340.0,62.5L339.0,61.5L332.0,61.5L331.0,60.5L325.0,60.5L324.0,59.5L318.0,59.5L317.0,58.5L310.0,58.5L309.0,57.5L302.0,57.5L301.0,56.5L295.0,56.5L294.0,55.5L288.0,55.5L287.0,54.5L275.5,54.0L275.5,79.0L276.5,80.0L276.5,109.0L277.5,110.0L277.5,138.0L278.5,139.0L278.5,167.0L279.5,168.0L279.5,179.0L281.5,180.0L282.0,184.5L282.5,182.0L284.0,180.5L286.5,181.0L286.5,197.0L285.0,198.5L283.0,198.5L282.0,193.5L281.5,197.0L280.5,198.0L280.5,226.0L281.5,227.0L281.5,229.0L282.5,229.0ZM349.5,185.0L349.5,146.0L348.5,145.0L348.5,64.0L347.0,63.5L346.5,173.0L347.5,174.0L347.5,185.0L349.5,185.0ZM423.5,182.0L424.5,73.0L418.0,72.5L417.0,71.5L411.0,71.5L410.0,70.5L403.0,70.5L402.0,69.5L395.0,69.5L394.0,68.5L388.0,68.5L387.0,67.5L381.0,67.5L380.0,66.5L373.0,66.5L372.0,65.5L366.0,65.5L365.0,64.5L352.0,63.5L352.5,173.0L353.5,174.0L353.5,182.0L354.0,182.5L356.0,181.5L366.0,173.5L371.0,173.5L372.0,175.5L373.0,174.5L376.0,174.5L377.0,175.5L383.0,175.5L384.0,176.5L394.0,177.5L395.0,178.5L400.0,178.5L401.0,179.5L405.0,179.5L406.0,180.5L411.0,180.5L412.0,181.5L417.0,181.5L418.0,182.5L423.5,182.0ZM485.5,192.0L485.5,171.0L486.5,170.0L486.0,132.5L485.5,163.0L484.5,164.0L484.5,192.0L485.5,192.0Z" fill-rule="evenodd"/><mask id="background-only" maskUnits="userSpaceOnUse" x="0" y="0" width="768" height="1024" style="mask-type:luminance"><rect width="768" height="1024" fill="white"/><use href="#object" transform="translate(0 512)" fill="black"/></mask></defs><rect width="768" height="1024" fill="#0f1916" opacity=".28" mask="url(#background-only)"/><use href="#object" transform="translate(0 512)" fill="#f59e0b" fill-opacity=".14" stroke="#f59b2f" stroke-width="4" stroke-linejoin="round"/></svg>