<svg xmlns="http://www.w3.org/2000/svg" viewBox="0 0 768 1024" width="768" height="1024"><defs><path id="object" d="M446.0,490.5L443.0,490.5L442.0,489.5L436.0,489.5L434.5,488.0L434.5,485.0L436.5,483.0L437.5,479.0L436.5,478.0L436.5,474.0L434.5,472.0L434.5,470.0L433.0,468.5L431.0,467.5L426.0,467.5L425.0,466.5L422.0,466.5L421.0,467.5L415.0,467.5L412.0,465.5L409.5,466.0L408.5,468.0L408.5,473.0L407.0,473.5L406.0,475.5L397.0,475.5L396.0,476.5L386.5,477.0L395.5,478.0L395.5,481.0L397.5,484.0L394.5,487.0L394.0,489.5L390.0,489.5L388.5,487.0L387.0,486.5L386.0,488.5L384.0,488.5L382.0,490.5L372.0,490.5L370.0,483.5L368.0,483.5L367.0,482.5L363.0,482.5L358.5,479.0L358.5,476.0L360.5,475.0L360.5,471.0L359.0,470.5L358.5,469.0L360.5,468.0L360.5,466.0L358.5,465.0L358.0,462.5L356.0,461.5L353.0,461.5L352.0,462.5L350.0,461.5L333.0,461.5L330.0,457.5L327.0,457.5L326.0,456.5L322.5,456.0L322.5,455.0L325.5,453.0L322.5,450.0L322.0,447.5L320.0,446.5L311.0,446.5L309.5,445.0L309.5,442.0L308.0,440.5L300.0,440.5L298.5,437.0L294.0,433.5L287.0,433.5L286.0,432.5L278.5,432.0L278.5,429.0L276.5,427.0L276.5,423.0L278.5,421.0L279.5,417.0L282.0,415.5L285.5,411.0L286.5,407.0L295.0,397.5L297.0,397.5L300.0,394.5L307.0,392.5L310.5,387.0L310.5,385.0L313.5,383.0L314.5,378.0L316.5,376.0L316.5,373.0L317.5,372.0L317.5,370.0L315.5,367.0L316.5,365.0L316.5,362.0L315.5,361.0L315.5,358.0L316.5,357.0L315.5,355.0L316.5,354.0L315.5,352.0L320.0,349.5L322.0,350.5L327.0,350.5L328.0,351.5L334.0,351.5L338.0,354.5L340.0,354.5L348.0,358.5L351.0,358.5L352.0,357.5L355.0,357.5L356.0,356.5L364.0,355.5L364.5,358.0L363.5,360.0L364.5,361.0L360.5,369.0L357.5,371.0L354.5,378.0L357.5,379.0L358.5,381.0L357.5,382.0L357.5,386.0L360.0,387.5L361.0,389.5L370.0,389.5L371.0,390.5L377.0,390.5L378.5,393.0L380.0,393.5L384.0,397.5L387.0,397.5L402.0,404.5L408.0,405.5L410.0,408.5L413.0,409.5L415.0,411.5L418.0,411.5L422.0,414.5L426.0,415.5L429.0,418.5L433.0,419.5L435.0,421.5L438.0,421.5L440.0,422.5L441.0,425.5L444.0,426.5L456.5,437.0L456.5,440.0L458.5,442.0L459.0,454.5L464.0,454.5L465.0,456.5L469.0,456.5L470.0,457.5L483.0,456.5L483.5,455.0L486.0,452.5L487.0,452.5L490.0,448.5L493.0,448.5L497.0,446.5L505.0,440.5L507.0,440.5L509.0,437.5L512.0,436.5L517.5,431.0L518.0,429.5L520.0,429.5L523.0,426.5L524.0,426.5L525.5,425.0L525.5,423.0L531.0,419.5L532.5,417.0L536.5,414.0L541.0,406.5L542.0,406.5L544.0,404.5L551.0,402.5L556.0,397.5L558.0,397.5L560.5,393.0L562.5,385.0L567.5,382.0L569.5,375.0L566.5,368.0L569.5,366.0L569.5,364.0L566.5,362.0L568.0,360.5L570.5,360.0L570.5,355.0L568.5,354.0L568.5,351.0L570.5,349.0L570.5,347.0L572.5,344.0L570.5,340.0L570.5,337.0L571.5,336.0L571.5,331.0L572.5,329.0L571.5,328.0L571.5,314.0L570.5,313.0L570.5,304.0L569.5,303.0L569.5,299.0L568.5,298.0L568.5,293.0L569.5,292.0L564.5,288.0L561.5,281.0L561.5,278.0L559.5,275.0L559.5,271.0L557.5,267.0L555.5,265.0L555.5,263.0L553.5,262.0L551.0,258.5L549.5,258.0L547.5,251.0L543.5,248.0L542.5,245.0L541.0,244.5L537.5,240.0L537.5,238.0L535.0,234.5L532.0,234.5L529.0,230.5L526.0,230.5L523.5,229.0L522.5,225.0L521.5,224.0L521.5,217.0L520.5,216.0L520.5,213.0L519.0,211.5L516.0,211.5L515.0,210.5L510.0,209.5L507.0,205.5L506.0,205.5L504.0,203.5L496.0,201.5L494.0,198.5L491.0,198.5L490.0,197.5L485.0,197.5L484.0,196.5L475.0,195.5L474.0,194.5L469.0,194.5L468.0,193.5L465.0,193.5L459.0,196.5L453.0,196.5L452.0,195.5L439.0,195.5L438.0,194.5L431.0,194.5L430.0,195.5L416.0,195.5L415.0,196.5L407.0,196.5L406.0,197.5L391.0,198.5L390.0,200.5L385.0,202.5L379.5,208.0L376.0,214.5L372.0,214.5L370.0,212.5L361.0,212.5L360.0,211.5L357.0,211.5L355.0,210.5L354.5,204.0L355.5,203.0L354.5,202.0L355.5,201.0L355.5,198.0L357.5,196.0L358.5,193.0L360.5,192.0L361.5,186.0L364.0,184.5L366.0,181.5L374.0,177.5L376.0,177.5L377.0,176.5L385.0,174.5L386.0,173.5L392.0,173.5L393.0,172.5L397.0,172.5L398.0,171.5L406.0,171.5L407.0,170.5L453.0,170.5L454.0,171.5L465.0,172.5L466.0,173.5L468.0,173.5L472.0,176.5L481.0,176.5L484.0,178.5L488.0,178.5L492.0,180.5L495.0,180.5L496.0,181.5L501.0,181.5L502.0,182.5L505.0,182.5L506.0,184.5L508.0,184.5L509.0,185.5L517.0,185.5L518.0,186.5L523.0,186.5L524.0,187.5L528.0,188.5L534.0,194.5L535.0,194.5L538.0,197.5L541.0,198.5L542.0,200.5L546.0,201.5L549.0,203.5L551.0,203.5L553.0,205.5L556.0,206.5L562.0,211.5L566.0,213.5L567.5,216.0L575.0,222.5L581.0,229.5L582.5,230.0L582.5,232.0L587.5,237.0L590.5,243.0L592.5,245.0L592.5,248.0L595.5,251.0L595.5,252.0L598.5,254.0L601.5,260.0L602.5,266.0L604.5,269.0L605.5,275.0L607.5,278.0L608.5,285.0L609.5,286.0L609.5,290.0L611.5,294.0L611.5,308.0L612.5,309.0L612.5,313.0L611.5,314.0L611.5,316.0L612.5,317.0L612.5,325.0L611.5,326.0L610.5,336.0L608.5,340.0L608.5,348.0L604.5,356.0L604.5,363.0L601.5,368.0L600.5,372.0L593.5,378.0L590.5,385.0L588.5,387.0L588.5,389.0L586.5,391.0L586.5,394.0L572.5,407.0L572.5,408.0L568.5,413.0L568.5,419.0L567.5,421.0L564.5,423.0L564.5,425.0L561.5,430.0L556.5,434.0L556.5,435.0L551.0,441.5L548.0,442.5L544.5,446.0L544.5,447.0L541.5,449.0L541.5,450.0L536.5,455.0L536.0,456.5L534.0,456.5L532.0,458.5L527.0,460.5L525.0,462.5L521.0,463.5L519.0,465.5L517.0,465.5L513.0,468.5L511.0,468.5L507.0,470.5L505.0,473.5L499.0,476.5L496.0,476.5L492.0,479.5L470.0,483.5L468.0,485.5L463.0,486.5L462.0,488.5L457.0,488.5L456.0,489.5L447.0,489.5L446.0,490.5ZM367.0,346.5L365.5,345.0L365.0,342.5L364.0,342.5L360.0,338.5L358.5,338.0L358.5,335.0L356.5,333.0L356.5,331.0L354.5,329.0L354.5,327.0L353.0,326.5L351.0,323.5L348.0,322.5L346.0,320.5L344.0,319.5L340.0,319.5L337.0,317.5L335.0,317.5L333.0,315.5L329.0,313.5L315.0,312.5L314.0,310.5L299.0,310.5L297.5,308.0L297.5,299.0L295.0,298.5L293.5,297.0L293.5,292.0L297.5,289.0L298.5,286.0L303.5,280.0L306.5,274.0L310.0,270.5L317.0,270.5L318.0,269.5L322.0,269.5L323.0,268.5L327.0,268.5L328.0,267.5L331.0,267.5L332.0,266.5L337.0,266.5L338.0,265.5L347.0,266.5L354.0,269.5L367.0,269.5L371.0,266.5L374.0,265.5L374.5,263.0L378.5,260.0L378.5,253.0L377.5,251.0L374.0,248.5L372.0,248.5L370.0,245.5L368.0,244.5L365.0,244.5L360.5,242.0L363.0,238.5L366.0,237.5L371.5,233.0L371.5,231.0L374.5,228.0L374.5,227.0L376.5,226.0L376.5,224.0L377.5,223.0L376.5,221.0L379.0,219.5L382.0,219.5L383.0,220.5L388.0,220.5L388.5,225.0L390.5,228.0L390.5,236.0L392.5,237.0L392.5,246.0L393.5,247.0L392.5,249.0L392.5,261.0L390.5,262.0L390.5,266.0L389.5,267.0L388.5,275.0L387.5,276.0L387.5,281.0L384.5,287.0L383.5,298.0L382.5,299.0L382.5,302.0L381.5,303.0L381.5,308.0L380.5,309.0L380.5,312.0L378.5,316.0L378.5,319.0L377.5,320.0L376.5,325.0L373.5,327.0L373.5,330.0L371.5,334.0L369.5,345.0L367.0,346.5ZM355.5,389.0L355.5,385.0L353.5,382.0L353.0,379.5L350.0,379.5L346.0,377.5L341.0,377.5L340.0,376.5L338.0,376.5L337.0,374.5L334.5,375.0L333.5,382.0L332.0,383.5L329.5,384.0L329.5,387.0L333.0,387.5L334.0,389.5L355.5,389.0Z" fill-rule="evenodd"/><mask id="background-only" maskUnits="userSpaceOnUse" x="0" y="0" width="768" height="1024" style="mask-type:luminance"><rect width="768" height="1024" fill="white"/><use href="#object" transform="translate(0 512)" fill="black"/></mask></defs><rect width="768" height="1024" fill="#0f1916" opacity=".28" mask="url(#background-only)"/><use href="#object" transform="translate(0 512)" fill="#f59e0b" fill-opacity=".14" stroke="#f59b2f" stroke-width="4" stroke-linejoin="round"/></svg>